# xmcd
#
# Track frame offsets: 
#        150
#        16022
#        35970
#        55337
#        76817
#        95465
#        112397
#        131497
#        149485
#        170055
#        187892
#        208740
#        227512
#        241907
#
# Disc length: 3515 seconds
#
# Revision: 3
# Processed by: cddbd v1.5.1PL0 Copyright (c) Steve Scherf et al.
# Submitted via: ExactAudioCopy v0.95b1
#
DISCID=c20db90e
DTITLE=Snow - Murder Love
DYEAR=1995
DGENRE=Reggae
TTITLE0=Si Wi Dem Nuh Know We 
TTITLE1=Bad Men
TTITLE2=Rivertown
TTITLE3=Murder Love
TTITLE4=Babylon
TTITLE5=Anything For You
TTITLE6=Yesturday
TTITLE7=Time
TTITLE8=Dream
TTITLE9=If You Like The Sound
TTITLE10=Sexy Girl
TTITLE11=Let's Get It On
TTITLE12=Things To Say
TTITLE13=Anything For You
EXTD=
EXTT0=
EXTT1=
EXTT2=
EXTT3=
EXTT4=
EXTT5=
EXTT6=
EXTT7=
EXTT8=
EXTT9=
EXTT10=
EXTT11=
EXTT12=
EXTT13=
PLAYORDER=
